<?xml version="1.0" standalone="no"?>
<!DOCTYPE svg PUBLIC "-//W3C//DTD SVG 20010904//EN"
 "http://www.w3.org/TR/2001/REC-SVG-20010904/DTD/svg10.dtd">
<svg version="1.0" xmlns="http://www.w3.org/2000/svg"
 width="1264.000000pt" height="1264.000000pt" viewBox="0 0 1264.000000 1264.000000"
 preserveAspectRatio="xMidYMid meet">
<metadata>
Created by potrace 1.11, written by Peter Selinger 2001-2013
</metadata>
<g transform="translate(0.000000,1264.000000) scale(0.100000,-0.100000)"
fill="#000000" stroke="none">
<path d="M1009 10090 c-85 -13 -212 -64 -288 -115 -81 -53 -202 -179 -250
-258 -18 -31 -47 -96 -64 -144 -29 -84 -31 -96 -35 -288 -5 -224 4 -299 49
-413 46 -116 104 -196 326 -444 829 -929 758 -835 758 -1013 0 -125 -11 -172
-58 -241 -25 -38 -48 -57 -101 -84 -69 -35 -70 -35 -200 -35 -126 0 -134 1
-196 31 -135 64 -190 143 -190 272 l0 72 -197 0 -196 0 6 -97 c20 -323 168
-540 427 -627 125 -41 208 -48 555 -44 317 4 321 4 400 31 115 38 197 90 295
187 98 96 154 183 197 305 26 76 28 90 31 302 4 254 -6 320 -74 456 -59 119
-48 106 -660 792 -320 359 -336 379 -368 445 -29 60 -31 73 -31 170 0 94 3
111 29 168 56 122 157 181 327 189 127 7 188 -10 258 -73 69 -62 104 -133 135
-276 l6 -28 192 0 191 0 -6 75 c-24 284 -159 511 -362 611 -142 69 -193 77
-540 80 -170 1 -335 -1 -366 -6z"/>
<path d="M6090 9905 l0 -195 385 0 385 0 0 195 0 195 -385 0 -385 0 0 -195z"/>
<path d="M3045 9328 c-3 -7 -4 -782 -3 -1723 l3 -1710 383 -3 382 -2 0 385 0
385 438 0 c352 0 449 3 500 15 235 56 447 239 539 465 52 131 54 161 51 891
-4 753 -1 718 -77 874 -96 195 -295 358 -501 411 -84 21 -519 32 -640 15 -163
-22 -253 -91 -296 -226 -12 -37 -13 -28 -13 98 l-1 137 -380 0 c-295 0 -382
-3 -385 -12z m1266 -403 c111 -39 206 -136 240 -246 18 -57 19 -102 19 -683 0
-673 -1 -680 -54 -765 -34 -53 -120 -129 -174 -154 -43 -20 -65 -22 -290 -25
l-243 -3 3 803 3 803 27 57 c50 107 114 169 217 209 59 23 191 25 252 4z"/>
<path d="M6097 9333 c-4 -3 -7 -606 -7 -1340 l0 -1333 385 0 385 0 0 1340 0
1340 -378 0 c-208 0 -382 -3 -385 -7z"/>
<path d="M7627 9333 c-4 -3 -7 -606 -7 -1340 l0 -1333 385 0 385 0 2 998 3
997 32 67 c149 315 601 287 704 -43 18 -58 19 -110 19 -1040 l0 -979 385 0
386 0 -3 1023 c-4 1144 2 1061 -77 1222 -74 150 -202 277 -356 354 -139 70
-180 76 -515 76 -284 0 -297 -1 -351 -23 -106 -42 -169 -116 -210 -242 l-18
-55 0 163 -1 162 -378 0 c-208 0 -382 -3 -385 -7z"/>
<path d="M10615 7375 c-162 -115 -331 -446 -568 -1115 -36 -102 -105 -295
-152 -430 -80 -226 -210 -569 -220 -578 -4 -4 -110 64 -545 347 -91 59 -374
244 -630 411 -256 166 -479 309 -497 316 -112 48 -241 -24 -358 -201 -139
-209 -250 -473 -502 -1190 -101 -288 -216 -598 -265 -716 l-23 -55 -460 300
c-1027 671 -1178 768 -1210 782 -37 15 -102 18 -121 6 -7 -4 66 -57 182 -132
l194 -125 60 -105 c32 -58 137 -265 233 -460 185 -377 250 -500 331 -620 97
-145 127 -168 761 -580 325 -211 688 -448 808 -527 140 -92 232 -146 260 -152
46 -11 95 -3 142 22 162 85 344 424 573 1072 231 651 280 787 334 925 34 85
62 157 64 159 2 3 14 -5 27 -16 12 -11 360 -240 772 -508 413 -269 776 -506
807 -528 48 -34 68 -41 117 -45 81 -6 121 10 193 76 157 146 299 441 547 1142
279 788 361 998 467 1199 90 170 171 277 243 321 22 14 40 27 40 30 0 5 -1528
1001 -1545 1007 -5 2 -32 -12 -59 -32z"/>
</g>
</svg>
